<svg xmlns="http://www.w3.org/2000/svg" viewBox="0 0 800 600" preserveAspectRatio="xMidYMid slice" role="img" aria-label="The Worker — an interactive football history timeline moving through stadium gates and supporter memories"><rect width="800" height="600" fill="#9B111B"/><rect y="430" width="800" height="170" fill="#141414"/><g fill="none" stroke="#F2EAD8" stroke-width="5" opacity=".92"><path d="M80 430 V250 H210 V430"/><path d="M265 430 V185 H405 V430"/><path d="M460 430 V120 H620 V430"/><path d="M620 430 V205 H720 V430" opacity=".55"/></g><g fill="#F2EAD8"><rect x="105" y="286" width="80" height="144" opacity=".22"/><rect x="292" y="225" width="86" height="205" opacity=".22"/><rect x="492" y="160" width="96" height="270" opacity=".22"/></g><path d="M78 494 H720" stroke="#F2EAD8" stroke-width="4" stroke-dasharray="14 13" opacity=".72"/><g fill="#F2EAD8"><circle cx="126" cy="494" r="12"/><circle cx="308" cy="494" r="12"/><circle cx="500" cy="494" r="12"/><circle cx="680" cy="494" r="12"/></g><g fill="#F2EAD8" font-family="Impact, 'Arial Black', sans-serif" letter-spacing="3"><text x="78" y="70" font-size="34">THE WORKER</text><text x="80" y="548" font-size="18" opacity=".8">1983</text><text x="634" y="548" font-size="18" opacity=".8">2026</text></g><path d="M660 92 l26 18 -26 18" fill="none" stroke="#F2EAD8" stroke-width="6" stroke-linecap="square" stroke-linejoin="miter"/></svg>